<svg width="4000" height="785" viewBox="0 0 4000 785" fill="none" xmlns="http://www.w3.org/2000/svg">
<path d="M574.035 19.9054C572.444 18.313 570.78 16.811 569.063 15.3995C556.963 5.45682 541.796 0.0152506 526.14 1.52204e-06H257.628C241.964 -0.00331877 226.783 5.42578 214.669 15.3634C212.946 16.7913 211.299 18.3073 209.733 19.9054L19.8884 209.911C7.17399 222.621 0.0206163 239.862 0 257.847L0 526.588C0.00546235 535.5 1.76465 544.323 5.17712 552.554C8.58959 560.785 13.5885 568.263 19.8884 574.56L209.733 764.566C211.311 766.153 212.971 767.657 214.705 769.072C226.819 779.01 242 784.439 257.664 784.436H526.14C541.791 784.431 556.958 779.002 569.063 769.072C570.78 767.661 572.444 766.159 574.035 764.566L763.879 574.56C770.179 568.263 775.178 560.785 778.59 552.554C782.003 544.323 783.762 535.5 783.768 526.588V257.847C783.762 248.936 782.003 240.113 778.59 231.882C775.178 223.651 770.179 216.173 763.879 209.875L574.035 19.9054ZM680.167 392.227V617.592C680.169 625.886 678.539 634.1 675.368 641.763C672.198 649.426 667.55 656.389 661.69 662.254C655.83 668.119 648.873 672.771 641.217 675.944C633.56 679.117 625.353 680.749 617.066 680.747H166.647C158.361 680.747 150.157 679.113 142.502 675.939C134.848 672.765 127.893 668.113 122.035 662.248C116.177 656.383 111.53 649.421 108.361 641.759C105.192 634.097 103.562 625.885 103.565 617.592V166.789C103.565 150.044 110.211 133.985 122.041 122.145C133.871 110.305 149.917 103.653 166.647 103.653H617.066C625.352 103.65 633.557 105.282 641.212 108.454C648.868 111.625 655.824 116.276 661.684 122.139C667.544 128.002 672.192 134.963 675.363 142.624C678.535 150.285 680.167 158.496 680.167 166.789V392.227Z" fill="black"/>
<path d="M1364.76 588.867C1186.92 588.867 1166.4 512.195 1166.4 467.462V462.45H1277.22C1278.57 482.989 1290.43 516.303 1377.98 516.303H1384.36C1473.73 516.303 1483.8 498.497 1483.8 480.256C1483.8 460.622 1473.32 448.299 1394.89 446.019L1336.52 444.643C1209.76 441.024 1171 398.101 1171 345.116V341.009C1171 290.34 1201.1 237.41 1355.67 237.41H1387.15C1547.65 237.41 1584.12 293.507 1584.12 344.646V349.26H1473.82C1471.55 336.467 1464.78 308.635 1375.79 308.635H1368.56C1286.48 308.635 1280.54 323.239 1280.54 337.842C1280.54 352.445 1289.68 365.673 1358.98 367.049L1415.97 367.971C1543.65 370.252 1595.18 401.286 1595.18 468.819V475.207C1595.18 531.304 1566.9 588.849 1396.3 588.849L1364.76 588.867Z" fill="black"/>
<path d="M1827.57 587.944C1643.82 578.896 1619.64 476.148 1619.64 419.092V405.357C1619.64 343.741 1644.72 237.41 1858.58 237.41H1878.19C2089.73 237.41 2116.67 343.741 2116.67 405.357V419.038C2116.67 475.135 2094.78 570.102 1928.8 586.533L1981.7 653.614H1827.57V587.944ZM2005.41 408.597C2005.41 367.99 1983.06 319.601 1868.16 319.601C1751.43 319.601 1730.91 367.519 1730.91 408.597V414.025C1730.91 454.18 1753.24 506.205 1868.16 506.205C1982.06 506.205 2005.41 455.103 2005.41 414.93V408.597Z" fill="black"/>
<path d="M2364.25 587.947C2182.32 587.947 2152.71 472.133 2152.71 408.147V243.475H2259.38V401.741C2259.38 445.551 2278.98 499.856 2371.48 499.856C2462.68 499.856 2482.75 445.569 2482.75 401.741V243.402H2589.12V408.074C2589.12 471.971 2554.46 587.874 2380.72 587.874L2364.25 587.947Z" fill="black"/>
<path d="M2918.27 520.865H2712.62L2682.07 582.934H2574L2745.46 243.402H2883.16L3064.63 582.934H2950.18L2918.27 520.865ZM2813.4 316.871L2750.46 444.194H2879.05L2813.4 316.871Z" fill="black"/>
<path d="M3085.6 243.402H3310.41C3506.93 243.402 3549.8 327.819 3549.8 404.039V417.737C3549.8 490.754 3509.21 582.934 3310.86 582.934H3085.6V243.402ZM3191.86 501.268H3302.15C3422.53 501.268 3438.48 448.319 3438.48 413.63V410.897C3438.48 376.226 3424.36 323.73 3302.15 323.73H3191.86V501.268Z" fill="black"/>
<path d="M3769.56 588.867C3591.74 588.867 3571.22 512.195 3571.22 467.462V462.45H3682.02C3683.39 482.989 3695.25 516.303 3782.8 516.303H3789.18C3878.55 516.303 3888.62 498.497 3888.62 480.256C3888.62 460.622 3878.14 448.299 3799.7 446.019L3741.34 444.643C3614.58 441.024 3575.82 398.101 3575.82 345.116V341.009C3575.82 290.34 3605.92 237.41 3760.49 237.41H3791.95C3952.47 237.41 3988.93 293.507 3988.93 344.646V349.26H3878.64C3876.37 336.467 3869.6 308.635 3780.61 308.635H3773.38C3691.31 308.635 3685.38 323.239 3685.38 337.842C3685.38 352.445 3694.42 365.673 3763.82 367.049L3820.8 367.971C3948.49 370.252 4000 401.286 4000 468.819V475.207C4000 531.304 3971.74 588.849 3801.21 588.849L3769.56 588.867Z" fill="black"/>
</svg>
