<svg width="34" height="34" viewBox="0 0 34 34" fill="none" xmlns="http://www.w3.org/2000/svg">
<rect width="34" height="34" rx="17" fill="#F2F2F2" fill-opacity="0.05"/>
<path fill-rule="evenodd" clip-rule="evenodd" d="M11.7331 20.4713C11.7845 20.4149 11.847 20.3698 11.9167 20.3389C11.9864 20.308 12.0619 20.2921 12.1382 20.292L24.6358 20.3022C24.689 20.3024 24.741 20.3179 24.7856 20.347C24.8302 20.3762 24.8653 20.4176 24.8867 20.4663C24.9082 20.515 24.915 20.5689 24.9064 20.6214C24.8978 20.6739 24.8742 20.7228 24.8383 20.7622L22.1769 23.6926C22.1255 23.749 22.0629 23.7942 21.9932 23.8251C21.9234 23.856 21.8479 23.8719 21.7715 23.8719L9.27424 23.8617C9.22102 23.8615 9.16897 23.846 9.12443 23.8169C9.07988 23.7878 9.04475 23.7463 9.0233 23.6976C9.00186 23.6489 8.99501 23.595 9.00361 23.5425C9.0122 23.49 9.03587 23.4411 9.07172 23.4017L11.7331 20.4713ZM24.8383 18.0275C24.8742 18.0669 24.8978 18.1158 24.9064 18.1683C24.915 18.2208 24.9082 18.2747 24.8867 18.3234C24.8653 18.3721 24.8302 18.4135 24.7856 18.4427C24.741 18.4718 24.689 18.4873 24.6358 18.4875L12.1385 18.4977C12.0622 18.4977 11.9867 18.4817 11.9169 18.4508C11.8471 18.42 11.7845 18.3748 11.7331 18.3184L9.07172 15.3862C9.03587 15.3469 9.0122 15.298 9.00361 15.2455C8.99501 15.193 9.00186 15.1391 9.0233 15.0904C9.04475 15.0417 9.07988 15.0002 9.12443 14.9711C9.16897 14.942 9.22102 14.9265 9.27424 14.9263L21.7718 14.9161C21.8481 14.9162 21.9236 14.9321 21.9933 14.963C22.0631 14.9939 22.1256 15.039 22.1769 15.0954L24.8383 18.0275ZM11.7331 9.72914C11.7845 9.6727 11.847 9.62759 11.9167 9.59671C11.9864 9.56584 12.0619 9.54985 12.1382 9.5498L24.6358 9.56003C24.689 9.56014 24.741 9.5757 24.7856 9.60483C24.8302 9.63395 24.8653 9.67538 24.8867 9.72409C24.9082 9.7728 24.915 9.82669 24.9064 9.87921C24.8978 9.93173 24.8742 9.98062 24.8383 10.02L22.1769 12.9504C22.1255 13.0068 22.0629 13.052 21.9932 13.0829C21.9234 13.1138 21.8479 13.1297 21.7715 13.1297L9.27424 13.1195C9.22102 13.1193 9.16897 13.1038 9.12443 13.0747C9.07988 13.0456 9.04475 13.0041 9.0233 12.9554C9.00186 12.9067 8.99501 12.8528 9.00361 12.8003C9.0122 12.7478 9.03587 12.6989 9.07172 12.6595L11.7331 9.72914Z" fill="white"/>
</svg>
