<svg width="2000" height="2000" viewBox="0 0 2000 2000" fill="none" xmlns="http://www.w3.org/2000/svg">
<path d="M1949.44 535.653L1678.56 264.762L1464.81 50.6746C1460.76 46.6249 1456.49 42.7962 1452.12 39.1844C1421.23 13.9237 1382.57 0.0842586 1342.67 0H657.436C617.531 0.0663333 578.872 13.9079 547.991 39.1844C543.613 42.7962 539.345 46.6249 535.295 50.6746L321.659 264.323L50.7827 535.215C34.6958 551.276 21.9305 570.35 13.2171 591.346C4.50359 612.342 0.0125293 634.851 4.84916e-06 657.583V1342.86C-0.00538187 1365.59 4.47718 1388.1 13.1917 1409.1C21.9062 1430.1 34.6813 1449.17 50.7827 1465.22L535.295 1949.87C539.345 1953.92 543.613 1957.75 547.991 1960.82C578.872 1986.09 617.531 1999.93 657.436 2000H1342.67C1382.57 1999.92 1421.23 1986.08 1452.12 1960.82C1456.49 1957.2 1460.76 1953.37 1464.81 1949.87L1949.33 1465.22C1965.39 1449.15 1978.14 1430.07 1986.83 1409.08C1995.53 1388.08 2000 1365.58 2000 1342.86V657.583C1999.87 611.865 1981.7 568.045 1949.44 535.653V535.653ZM1735.8 1001.04V1575.55C1735.76 1596.71 1731.54 1617.66 1723.4 1637.19C1715.25 1656.72 1703.34 1674.45 1688.34 1689.37C1673.33 1704.3 1655.53 1716.12 1635.96 1724.15C1616.39 1732.19 1595.42 1736.29 1574.26 1736.22H425.084C403.938 1736.24 382.997 1732.08 363.457 1723.99C343.918 1715.91 326.166 1704.05 311.213 1689.1C296.261 1674.14 284.402 1656.39 276.317 1636.85C268.231 1617.31 264.077 1596.37 264.091 1575.22V425.983C264.077 404.831 268.23 383.883 276.314 364.336C284.398 344.79 296.255 327.026 311.207 312.064C326.158 297.102 343.91 285.237 363.449 277.139C382.989 269.041 403.933 264.868 425.084 264.868H1574.26C1616.99 264.868 1657.96 281.844 1688.17 312.059C1718.39 342.273 1735.36 383.253 1735.36 425.983V1001.15L1735.8 1001.04Z" fill="white"/>
</svg>
