<svg width="512" height="512" viewBox="0 0 512 512" fill="none" xmlns="http://www.w3.org/2000/svg">
<g clip-path="url(#clip0_294_155)">
<rect width="512" height="512" fill="#171717"/>
<g filter="url(#filter0_f_294_155)">
<rect x="129.855" y="-40.8115" width="248.58" height="85.3333" fill="white"/>
</g>
<g clip-path="url(#clip1_294_155)">
<path d="M398.416 186.348L357.784 145.714L325.722 113.601C325.114 112.994 324.474 112.419 323.818 111.878C319.185 108.089 313.386 106.013 307.401 106H204.615C198.63 106.01 192.831 108.086 188.199 111.878C187.542 112.419 186.902 112.994 186.294 113.601L154.249 145.648L113.617 186.282C111.204 188.691 109.29 191.553 107.983 194.702C106.676 197.851 106.002 201.228 106 204.637V307.429C105.999 310.839 106.672 314.215 107.979 317.365C109.286 320.515 111.202 323.376 113.617 325.783L186.294 398.481C186.902 399.088 187.542 399.663 188.199 400.123C192.831 403.914 198.63 405.99 204.615 406H307.401C313.386 405.988 319.185 403.912 323.818 400.123C324.474 399.58 325.114 399.006 325.722 398.481L398.4 325.783C400.809 323.373 402.721 320.511 404.025 317.362C405.33 314.212 406 310.837 406 307.429V204.637C405.981 197.78 403.255 191.207 398.416 186.348ZM366.37 256.156V342.333C366.364 345.507 365.731 348.649 364.51 351.579C363.288 354.508 361.501 357.168 359.251 359.406C357 361.645 354.33 363.418 351.394 364.623C348.459 365.829 345.313 366.444 342.139 366.433H169.763C166.591 366.436 163.45 365.812 160.519 364.599C157.588 363.387 154.925 361.608 152.682 359.365C150.439 357.121 148.66 354.459 147.448 351.528C146.235 348.597 145.612 345.456 145.614 342.283V169.897C145.612 166.725 146.235 163.582 147.447 160.65C148.66 157.719 150.438 155.054 152.681 152.81C154.924 150.565 157.587 148.786 160.517 147.571C163.448 146.356 166.59 145.73 169.763 145.73H342.139C348.549 145.73 354.694 148.277 359.226 152.809C363.759 157.341 366.304 163.488 366.304 169.897V256.173L366.37 256.156Z" fill="url(#paint0_linear_294_155)" fill-opacity="0.75"/>
</g>
</g>
<defs>
<filter id="filter0_f_294_155" x="-313.345" y="-484.012" width="1134.98" height="971.734" filterUnits="userSpaceOnUse" color-interpolation-filters="sRGB">
<feFlood flood-opacity="0" result="BackgroundImageFix"/>
<feBlend mode="normal" in="SourceGraphic" in2="BackgroundImageFix" result="shape"/>
<feGaussianBlur stdDeviation="221.6" result="effect1_foregroundBlur_294_155"/>
</filter>
<linearGradient id="paint0_linear_294_155" x1="256" y1="106" x2="256" y2="406" gradientUnits="userSpaceOnUse">
<stop stop-color="#F2F2F2" stop-opacity="0.16"/>
<stop offset="1" stop-color="#252525"/>
</linearGradient>
<clipPath id="clip0_294_155">
<rect width="512" height="512" fill="white"/>
</clipPath>
<clipPath id="clip1_294_155">
<rect width="300" height="300" fill="white" transform="translate(106 106)"/>
</clipPath>
</defs>
</svg>
